<?xml version="1.0" standalone="no"?>
<!DOCTYPE svg PUBLIC "-//W3C//DTD SVG 20010904//EN"
 "http://www.w3.org/TR/2001/REC-SVG-20010904/DTD/svg10.dtd">
<svg version="1.0" xmlns="http://www.w3.org/2000/svg"
 width="1080.000000pt" height="1080.000000pt" viewBox="0 0 1080.000000 1080.000000"
 preserveAspectRatio="xMidYMid meet">

<g transform="translate(0.000000,1080.000000) scale(0.100000,-0.100000)"
fill="#E7C697" stroke="none">
<path d="M4410 7336 c0 -2 7 -9 15 -16 13 -11 14 -10 9 4 -5 14 -24 23 -24 12z"/>
<path d="M4480 7254 c0 -13 18 -39 24 -34 2 3 -2 14 -10 24 -8 11 -14 16 -14
10z"/>
<path d="M4486 7197 c3 -10 9 -15 12 -12 3 3 0 11 -7 18 -10 9 -11 8 -5 -6z"/>
<path d="M4520 7170 c0 -5 5 -10 10 -10 6 0 10 5 10 10 0 6 -4 10 -10 10 -5 0
-10 -4 -10 -10z"/>
<path d="M4080 7153 c0 -6 8 -17 18 -24 16 -13 16 -13 2 6 -8 11 -16 22 -17
24 -2 2 -3 0 -3 -6z"/>
<path d="M4560 7144 c0 -5 7 -18 15 -28 8 -11 15 -16 15 -10 0 5 -7 18 -15 28
-8 11 -15 16 -15 10z"/>
<path d="M4420 7129 c0 -8 11 -27 25 -44 l25 -30 -22 40 c-27 50 -28 51 -28
34z"/>
<path d="M4125 7075 c0 -25 9 -33 19 -16 3 4 0 16 -7 25 -11 14 -12 13 -12 -9z"/>
<path d="M4610 7055 c0 -8 4 -15 10 -15 5 0 7 7 4 15 -4 8 -8 15 -10 15 -2 0
-4 -7 -4 -15z"/>
<path d="M4181 7005 c18 -25 34 -43 37 -41 6 6 -51 86 -61 86 -5 0 6 -20 24
-45z"/>
<path d="M4541 7031 c-8 -6 -9 -11 -3 -15 6 -3 14 -1 17 5 9 14 2 20 -14 10z"/>
<path d="M4649 6986 c9 -18 19 -32 24 -29 8 5 -23 63 -34 63 -4 0 1 -15 10
-34z"/>
<path d="M4490 7001 c0 -6 4 -13 10 -16 6 -3 7 1 4 9 -7 18 -14 21 -14 7z"/>
<path d="M4520 7001 c0 -6 4 -13 10 -16 6 -3 7 1 4 9 -7 18 -14 21 -14 7z"/>
<path d="M4170 6980 c0 -5 5 -10 11 -10 5 0 7 5 4 10 -3 6 -8 10 -11 10 -2 0
-4 -4 -4 -10z"/>
<path d="M6135 6970 c-26 -4 -35 -9 -25 -13 8 -4 35 -1 60 7 48 15 32 18 -35
6z"/>
<path d="M4510 6969 c0 -13 32 -70 37 -65 3 3 -4 20 -16 38 -11 18 -21 30 -21
27z"/>
<path d="M4190 6954 c0 -18 24 -45 36 -40 8 3 14 2 15 -2 1 -9 6 -31 15 -61 7
-22 6 -23 -8 -10 -9 7 -14 17 -12 20 6 11 -24 44 -32 36 -5 -4 -3 -11 3 -15
17 -11 12 -84 -6 -90 -9 -3 -11 0 -6 8 5 8 4 11 -3 6 -5 -3 -12 0 -15 6 -2 7
-8 9 -13 5 -5 -4 -2 -13 6 -18 11 -8 12 -12 3 -16 -7 -2 -13 -18 -13 -34 0
-22 -5 -29 -20 -29 -17 0 -20 -7 -20 -40 0 -22 -4 -40 -10 -40 -6 0 -10 33
-10 80 0 52 -4 80 -11 80 -8 0 -10 -25 -7 -77 3 -43 3 -61 1 -40 -3 29 -9 37
-24 37 -15 0 -19 -7 -19 -34 0 -33 -24 -58 -33 -33 -2 7 -3 5 -3 -3 1 -8 9
-14 19 -12 14 2 17 -5 17 -38 0 -33 -3 -40 -20 -40 -17 0 -20 -7 -20 -40 0
-33 -3 -40 -20 -40 -17 0 -20 -7 -20 -40 0 -33 -3 -40 -20 -40 -17 0 -20 -7
-20 -40 0 -33 -3 -40 -20 -40 -17 0 -20 -7 -20 -40 l0 -40 -40 0 -40 0 0 -40
c0 -33 -3 -40 -20 -40 -17 0 -20 -7 -20 -40 l0 -40 -80 0 -80 0 0 -40 0 -40
40 0 40 0 0 -40 c0 -33 -3 -40 -20 -40 -17 0 -20 -7 -20 -40 l0 -40 -40 0 -40
0 0 -40 c0 -33 -3 -40 -20 -40 -12 0 -20 7 -20 16 0 14 -1 14 -16 0 -8 -9 -20
-16 -25 -16 -5 0 -2 -14 6 -31 9 -17 19 -28 23 -25 3 4 0 12 -6 18 -16 16 -15
35 2 35 11 0 13 -11 11 -41 -4 -35 3 -49 52 -120 50 -71 91 -124 183 -230 45
-51 201 -185 271 -231 116 -78 297 -162 429 -200 101 -29 274 -65 314 -65 11
0 2 244 -14 380 -35 305 -86 581 -146 793 -53 187 -125 387 -137 380 -6 -3 -7
-1 -3 6 8 13 -48 165 -71 192 -7 8 -13 21 -13 28 0 24 -70 162 -79 157 -5 -3
-7 2 -4 13 3 12 -3 24 -17 34 -11 8 -20 18 -18 23 5 20 -14 50 -42 66 -16 9
-30 15 -30 12z m100 -125 c0 -5 -4 -9 -10 -9 -5 0 -10 7 -10 16 0 8 5 12 10 9
6 -3 10 -10 10 -16z m43 -94 c4 -8 3 -16 -1 -19 -4 -3 -9 4 -9 15 -2 23 3 25
10 4z m27 -70 c0 -5 -5 -3 -10 5 -5 8 -10 20 -10 25 0 6 5 3 10 -5 5 -8 10
-19 10 -25z m-33 3 c-3 -8 -6 -5 -6 6 -1 11 2 17 5 13 3 -3 4 -12 1 -19z
m-773 -1003 c-3 -6 2 -19 11 -30 15 -19 15 -19 13 9 -2 19 2 30 12 33 13 4 13
3 0 -6 -9 -7 -11 -14 -5 -18 6 -5 11 -16 11 -25 3 -32 -21 -25 -48 13 -24 33
-25 38 -9 36 11 0 17 -6 15 -12z m91 -85 c3 -6 -1 -7 -9 -4 -18 7 -21 14 -7
14 6 0 13 -4 16 -10z"/>
<path d="M4691 6930 c29 -45 32 -67 5 -35 -14 17 -25 25 -26 20 0 -6 6 -17 13
-24 10 -12 9 -13 -7 -7 -16 5 -17 4 -7 -8 7 -8 18 -13 24 -11 7 3 19 0 27 -5
13 -9 13 -11 0 -19 -8 -6 -11 -13 -7 -18 5 -4 12 -2 16 6 6 9 15 0 29 -30 24
-48 22 -67 -2 -21 -11 22 -21 29 -40 27 -47 -6 -66 -16 -67 -38 -1 -17 -2 -18
-6 -4 -2 9 -9 15 -14 12 -5 -4 -9 1 -9 9 0 9 -4 16 -10 16 -5 0 -10 5 -10 11
0 5 5 7 10 4 13 -8 13 5 0 25 -8 13 -10 12 -10 -4 0 -20 0 -20 -15 0 -22 30
-18 14 14 -47 16 -31 31 -65 34 -75 4 -16 5 -15 6 4 0 13 5 21 11 17 5 -3 7
-13 4 -23 -4 -11 2 -8 15 8 l21 25 -9 -32 c-5 -18 -7 -41 -4 -53 3 -11 1 -20
-4 -20 -5 0 6 -44 25 -97 97 -279 143 -468 186 -773 42 -295 50 -426 50 -785
0 -337 -8 -470 -44 -800 -45 -399 -129 -878 -212 -1199 -37 -145 -68 -290 -62
-295 14 -14 146 337 212 566 131 447 188 698 242 1058 88 590 80 1192 -21
1675 -23 111 -80 323 -88 330 -3 3 -7 15 -8 27 -4 36 -57 163 -63 153 -3 -5
-6 5 -6 23 -1 34 -73 207 -87 207 -4 0 -5 -4 -2 -10 3 -5 1 -10 -5 -10 -8 0
-10 9 -6 25 5 18 -6 49 -39 114 -25 50 -51 94 -58 98 -7 4 -5 -3 4 -17z m64
-176 c24 -37 13 -40 -14 -4 -12 17 -17 30 -12 30 5 0 16 -12 26 -26z m-21 -19
c3 -8 0 -14 -7 -12 -8 1 -11 -9 -9 -28 2 -20 0 -26 -6 -16 -7 9 -11 4 -15 -20
-3 -19 -1 -38 4 -43 5 -6 9 -24 8 -40 0 -29 -1 -28 -14 11 -13 44 -4 124 17
151 13 15 15 15 22 -3z m-13 -102 c-12 -20 -14 -14 -5 12 4 9 9 14 11 11 3 -2
0 -13 -6 -23z m96 -35 c-3 -8 -6 -5 -6 6 -1 11 2 17 5 13 3 -3 4 -12 1 -19z
m-57 -144 c0 -8 -4 -12 -10 -9 -5 3 -10 13 -10 21 0 8 5 12 10 9 6 -3 10 -13
10 -21z m20 -50 c0 -8 -5 -12 -10 -9 -6 4 -8 11 -5 16 9 14 15 11 15 -7z m7
-66 c-3 -7 -5 -2 -5 12 0 14 2 19 5 13 2 -7 2 -19 0 -25z"/>
<path d="M6075 6940 c-3 -6 1 -7 9 -4 18 7 21 14 7 14 -6 0 -13 -4 -16 -10z"/>
<path d="M5975 6930 c3 -5 11 -10 16 -10 6 0 7 5 4 10 -3 6 -11 10 -16 10 -6
0 -7 -4 -4 -10z"/>
<path d="M6546 6911 c-19 -7 -19 -8 2 -13 12 -4 20 -2 17 2 -3 5 18 11 47 13
l53 3 -50 1 c-27 1 -59 -2 -69 -6z"/>
<path d="M6681 6903 c7 -10 15 -20 16 -22 2 -2 3 5 3 17 0 14 -6 22 -16 22
-14 0 -15 -3 -3 -17z"/>
<path d="M6448 6903 c6 -2 18 -2 25 0 6 3 1 5 -13 5 -14 0 -19 -2 -12 -5z"/>
<path d="M4550 6881 c0 -6 4 -13 10 -16 6 -3 7 1 4 9 -7 18 -14 21 -14 7z"/>
<path d="M6640 6880 c-8 -5 -11 -12 -7 -17 5 -4 11 -3 15 3 4 6 14 14 22 17
13 5 13 5 0 6 -8 0 -22 -3 -30 -9z"/>
<path d="M4610 6875 c0 -5 5 -17 10 -25 5 -8 10 -10 10 -5 0 6 -5 17 -10 25
-5 8 -10 11 -10 5z"/>
<path d="M6660 6856 c0 -12 -5 -16 -15 -12 -22 8 -18 -17 5 -34 16 -11 19 -22
15 -55 -4 -32 -3 -35 4 -15 7 17 8 7 4 -35 -7 -69 -13 -85 -13 -32 0 45 -8 67
-26 67 -8 0 -14 7 -14 15 0 8 -4 15 -10 15 -5 0 -10 -7 -10 -16 0 -12 -7 -15
-25 -12 -14 3 -30 -1 -36 -8 -9 -11 -5 -14 19 -14 24 0 30 -4 26 -15 -4 -8
-12 -15 -20 -15 -8 0 -24 -10 -35 -21 -16 -16 -18 -23 -9 -29 10 -6 6 -15 -15
-34 -34 -31 -91 -36 -97 -8 -3 12 -6 9 -10 -10 -5 -27 -4 -28 38 -28 l44 0 0
-40 c0 -40 0 -40 -39 -40 -34 0 -40 3 -46 27 l-6 26 -22 -23 c-15 -15 -18 -24
-10 -27 19 -7 4 -30 -35 -54 -28 -17 -33 -24 -19 -27 31 -7 25 -19 -49 -93
-14 -15 -36 -35 -47 -45 -12 -10 -16 -19 -9 -22 18 -6 2 -31 -29 -48 -22 -11
-29 -11 -29 -2 0 8 -6 6 -17 -5 -15 -15 -16 -19 -4 -26 11 -7 9 -13 -9 -31
-15 -15 -25 -19 -29 -11 -5 7 -14 6 -29 -5 -23 -16 -29 -34 -12 -34 6 0 17 -6
24 -12 11 -10 8 -18 -15 -40 -15 -16 -32 -28 -38 -28 -6 0 -11 -5 -11 -11 0
-7 -12 -23 -27 -37 -17 -15 -23 -27 -16 -29 19 -7 3 -32 -28 -49 -22 -11 -29
-11 -29 -2 0 7 -7 5 -17 -6 -13 -13 -14 -20 -6 -23 19 -7 4 -30 -35 -53 -25
-15 -32 -24 -23 -29 10 -6 4 -17 -20 -42 l-33 -33 24 -6 24 -6 -23 -23 c-17
-17 -25 -20 -31 -11 -6 9 -14 6 -30 -10 -15 -15 -19 -25 -11 -29 8 -5 7 -13
-4 -27 -8 -11 -15 -14 -15 -6 0 19 -19 14 -47 -14 -19 -19 -23 -28 -13 -34 9
-6 7 -13 -10 -30 -18 -18 -24 -19 -31 -9 -6 11 -12 9 -28 -5 -31 -28 -26 -36
22 -36 l42 -1 -24 -17 c-13 -9 -33 -27 -46 -39 -28 -29 -45 -29 -45 -2 0 18
-2 19 -15 9 -8 -7 -15 -16 -15 -21 0 -5 7 -9 15 -9 17 0 20 -25 5 -35 -5 -3
-10 -1 -10 6 0 7 -11 2 -25 -11 -16 -15 -23 -30 -19 -42 5 -17 -10 -26 -19
-10 -2 4 -2 0 1 -8 7 -27 8 -69 1 -64 -4 2 -10 20 -13 39 -9 47 -26 45 -25 -2
1 -34 2 -35 9 -13 7 22 8 21 9 -12 1 -21 6 -38 11 -38 6 0 10 -4 10 -10 0 -5
-7 -10 -15 -10 -9 0 -15 9 -15 22 0 28 -15 12 -24 -24 -5 -22 -3 -26 9 -22 11
5 13 2 9 -10 -3 -9 -14 -17 -23 -17 -9 -1 2 -5 24 -9 l40 -7 -45 -2 c-38 -1
-42 -3 -26 -13 30 -17 265 -4 368 21 298 71 543 220 695 422 133 177 218 392
265 674 16 96 16 564 -1 640 l-10 50 3 -50 c4 -43 3 -47 -8 -27 -7 13 -15 19
-19 16 -4 -4 -7 0 -7 9 0 8 6 17 13 20 10 4 10 7 0 18 -11 11 -13 10 -13 -5z
m-712 -1028 c-6 -18 -28 -21 -28 -4 0 9 7 16 16 16 9 0 14 -5 12 -12z m-158
-232 c0 -2 -7 -9 -15 -16 -12 -10 -15 -10 -15 4 0 9 7 16 15 16 8 0 15 -2 15
-4z m-320 -466 c0 -5 -4 -10 -10 -10 -5 0 -10 5 -10 10 0 6 5 10 10 10 6 0 10
-4 10 -10z m-41 -29 c-15 -5 -22 6 -14 19 6 9 10 9 16 -1 5 -8 4 -15 -2 -18z
m248 3 c-3 -3 -12 -4 -19 -1 -8 3 -5 6 6 6 11 1 17 -2 13 -5z"/>
<path d="M4634 6825 c-7 -17 4 -37 17 -30 12 8 12 45 -1 45 -6 0 -13 -7 -16
-15z"/>
<path d="M6565 6819 c-4 -6 -5 -12 -2 -15 2 -3 7 2 10 11 7 17 1 20 -8 4z"/>
<path d="M6640 6774 c0 -8 5 -12 10 -9 6 3 10 10 10 16 0 5 -4 9 -10 9 -5 0
-10 -7 -10 -16z"/>
<path d="M4646 6675 c4 -8 10 -15 15 -15 4 0 6 7 3 15 -4 8 -10 15 -15 15 -4
0 -6 -7 -3 -15z"/>
<path d="M6480 6650 c0 -5 5 -10 10 -10 6 0 10 5 10 10 0 6 -4 10 -10 10 -5 0
-10 -4 -10 -10z"/>
<path d="M6215 6330 c4 -6 11 -8 16 -5 14 9 11 15 -7 15 -8 0 -12 -5 -9 -10z"/>
<path d="M3773 6305 c-14 -15 -18 -65 -5 -65 4 0 14 9 22 20 8 11 22 20 32 20
11 0 18 7 18 20 0 15 -7 20 -27 20 -16 -1 -34 -7 -40 -15z"/>
<path d="M3306 6107 c3 -10 9 -15 12 -12 3 3 0 11 -7 18 -10 9 -11 8 -5 -6z"/>
<path d="M5291 5954 c0 -11 3 -14 6 -6 3 7 2 16 -1 19 -3 4 -6 -2 -5 -13z"/>
<path d="M3523 5880 c0 -25 2 -35 4 -22 2 12 2 32 0 45 -2 12 -4 2 -4 -23z"/>
<path d="M3400 5891 c0 -6 4 -13 10 -16 6 -3 7 1 4 9 -7 18 -14 21 -14 7z"/>
<path d="M3426 5838 c8 -28 35 -60 43 -53 3 4 0 10 -7 14 -12 7 -18 24 -21 54
-1 4 -6 7 -12 7 -6 0 -8 -9 -3 -22z"/>
<path d="M5221 5824 c0 -11 3 -14 6 -6 3 7 2 16 -1 19 -3 4 -6 -2 -5 -13z"/>
<path d="M3480 5805 c0 -8 2 -15 4 -15 2 0 6 7 10 15 3 8 1 15 -4 15 -6 0 -10
-7 -10 -15z"/>
<path d="M5262 5795 c0 -16 2 -22 5 -12 2 9 2 23 0 30 -3 6 -5 -1 -5 -18z"/>
<path d="M5234 5755 c-4 -9 -4 -19 0 -22 3 -4 7 2 7 13 1 10 5 3 9 -16 l7 -35
2 32 c1 35 -16 54 -25 28z"/>
<path d="M5212 5720 c0 -14 2 -19 5 -12 2 6 2 18 0 25 -3 6 -5 1 -5 -13z"/>
<path d="M5227 5640 c3 -30 7 -56 8 -58 1 -1 5 21 9 49 4 28 5 54 1 57 -3 3
-5 -6 -6 -19 l-1 -24 -8 25 c-6 16 -7 6 -3 -30z"/>
<path d="M5675 5610 c-3 -5 1 -10 9 -10 9 0 16 5 16 10 0 6 -4 10 -9 10 -6 0
-13 -4 -16 -10z"/>
<path d="M5411 5504 c0 -11 3 -14 6 -6 3 7 2 16 -1 19 -3 4 -6 -2 -5 -13z"/>
<path d="M5421 5388 c0 -9 -4 -25 -7 -35 -5 -17 -5 -17 6 0 6 10 9 25 7 35 -4
15 -5 15 -6 0z"/>
<path d="M5431 5314 c0 -11 3 -14 6 -6 3 7 2 16 -1 19 -3 4 -6 -2 -5 -13z"/>
<path d="M5412 5300 c0 -14 2 -19 5 -12 2 6 2 18 0 25 -3 6 -5 1 -5 -13z"/>
<path d="M1022 4903 c34 -66 40 -92 35 -148 -3 -33 -12 -80 -20 -105 -18 -51
-12 -60 40 -60 23 0 37 7 51 28 19 27 62 123 77 172 4 14 16 37 27 53 l20 28
146 -3 147 -3 3 -640 c2 -464 -1 -648 -9 -668 -16 -37 -55 -67 -90 -67 -19 0
-29 -5 -29 -15 0 -13 31 -15 238 -13 150 2 237 7 236 13 -1 6 -18 13 -39 16
-26 4 -48 17 -67 38 l-28 31 0 655 0 655 148 0 c167 0 168 -1 192 -75 19 -58
59 -145 81 -177 15 -21 29 -28 52 -28 53 0 60 11 40 56 -24 56 -25 204 0 231
9 11 17 23 17 26 0 4 -286 7 -636 7 -350 0 -634 -3 -632 -7z"/>
<path d="M2390 4900 c0 -5 15 -12 34 -16 19 -3 45 -17 58 -31 l23 -25 3 -621
c1 -342 0 -633 -3 -645 -9 -35 -53 -72 -86 -72 -19 0 -29 -5 -29 -15 0 -13 28
-15 210 -13 129 2 211 7 213 13 1 6 -9 11 -23 13 -14 2 -39 14 -55 27 l-30 23
0 355 0 355 31 44 c50 68 96 100 151 105 84 7 131 -41 153 -158 14 -72 13
-647 -1 -687 -12 -34 -47 -62 -79 -62 -11 0 -20 -7 -20 -15 0 -13 30 -15 210
-15 180 0 210 2 210 15 0 10 -10 15 -29 15 -17 0 -42 10 -58 24 l-28 24 -6
344 c-7 402 -8 408 -98 499 -42 41 -69 59 -106 70 -110 31 -211 9 -294 -66
l-41 -37 0 281 0 281 -155 0 c-92 0 -155 -4 -155 -10z"/>
<path d="M5362 4898 c3 -7 26 -19 52 -26 35 -10 52 -22 67 -45 18 -31 19 -56
19 -635 0 -541 -2 -606 -17 -635 -21 -41 -39 -54 -85 -62 -23 -4 -38 -12 -38
-21 0 -12 31 -14 175 -14 146 0 175 2 175 15 0 8 -15 17 -37 21 -21 4 -49 14
-62 23 -50 32 -51 40 -51 623 0 298 4 538 8 533 5 -6 31 -68 59 -140 28 -71
122 -308 208 -525 85 -217 171 -433 189 -480 34 -85 52 -108 77 -98 8 3 58
133 112 289 54 156 129 372 167 479 38 107 90 257 117 333 l48 138 3 -547 2
-548 -25 -38 c-23 -35 -36 -42 -90 -50 -11 -2 -19 -8 -18 -13 3 -11 446 -20
473 -10 13 5 13 7 0 15 -8 6 -27 10 -41 10 -15 0 -38 13 -57 31 l-32 31 0 633
c0 625 0 633 21 659 12 16 38 31 65 37 24 6 44 15 44 20 0 12 -327 12 -335 -1
-3 -5 -55 -155 -116 -332 -61 -178 -135 -395 -165 -483 -31 -88 -69 -200 -86
-249 l-31 -89 -14 34 c-14 32 -133 336 -332 849 -50 129 -96 245 -101 258 -9
22 -13 22 -181 22 -131 0 -170 -3 -167 -12z"/>
<path d="M9035 4721 c-8 -73 -59 -182 -106 -229 -41 -41 -78 -61 -132 -70 -38
-7 -42 -10 -45 -39 l-3 -32 88 -3 88 -3 5 -365 5 -365 28 -47 c52 -90 130
-130 252 -131 64 -1 88 3 121 20 68 36 114 103 130 189 6 35 6 35 -27 32 -31
-3 -34 -6 -46 -57 -8 -29 -21 -63 -29 -76 -15 -23 -79 -55 -110 -55 -33 0 -82
32 -102 68 -36 64 -43 148 -40 477 l3 310 118 3 118 3 -3 32 c-2 18 -9 33 -15
33 -7 1 -60 2 -118 3 l-106 1 2 178 1 177 -35 3 -35 3 -7 -60z"/>
<path d="M7337 4749 c-23 -13 -47 -62 -47 -94 0 -87 76 -138 149 -100 56 28
67 131 20 181 -24 26 -88 33 -122 13z"/>
<path d="M8130 4439 c-165 -18 -272 -128 -257 -261 13 -107 98 -192 299 -297
57 -30 123 -70 147 -89 111 -90 99 -217 -26 -278 -92 -46 -223 -32 -273 28
-44 53 -32 124 30 168 35 25 38 52 10 98 -33 54 -108 69 -160 32 -58 -41 -87
-153 -59 -227 31 -84 147 -151 299 -174 170 -26 334 44 397 171 25 50 23 162
-5 217 -35 67 -118 132 -268 208 -91 46 -155 86 -187 117 l-50 47 5 55 c5 65
27 94 93 126 156 76 332 -67 208 -169 -34 -28 -35 -29 -19 -59 18 -36 62 -72
86 -72 62 0 120 60 120 125 0 86 -88 193 -181 219 -67 18 -137 23 -209 15z"/>
<path d="M3868 4421 c-162 -64 -255 -221 -265 -451 -11 -235 84 -423 254 -502
60 -28 76 -32 162 -32 77 0 107 4 150 22 136 57 196 132 196 242 -1 77 -21
122 -68 150 -60 37 -136 19 -171 -42 -17 -28 -17 -29 13 -57 56 -53 61 -105
18 -184 -28 -50 -73 -77 -128 -77 -84 0 -138 56 -186 191 -22 63 -27 96 -31
217 l-5 142 282 0 c154 0 281 3 281 8 -1 32 -35 143 -60 191 -39 78 -89 126
-175 167 -60 30 -79 34 -145 34 -48 -1 -92 -8 -122 -19z m175 -51 c40 -35 73
-105 82 -175 3 -27 8 -60 11 -72 l4 -23 -160 0 c-92 0 -160 4 -160 9 0 28 31
153 48 192 24 56 73 99 112 99 18 0 42 -11 63 -30z"/>
<path d="M7183 4407 c-2 -4 2 -9 9 -11 58 -15 75 -26 95 -55 23 -34 23 -36 23
-398 0 -399 -3 -420 -56 -441 -16 -6 -38 -12 -48 -14 -11 -2 -19 -7 -18 -13 1
-6 84 -11 218 -13 169 -2 215 0 212 10 -3 7 -20 16 -39 19 -18 4 -44 19 -56
34 -22 25 -23 34 -24 208 0 100 -1 295 -2 432 l-2 250 -153 0 c-85 0 -156 -3
-159 -8z"/>
<path d="M7228 3155 c-2 -80 0 -145 5 -145 4 0 7 65 7 145 0 80 -2 145 -4 145
-3 0 -6 -65 -8 -145z"/>
<path d="M5637 3283 c-3 -3 3 -23 13 -44 11 -21 22 -46 24 -56 1 -10 10 -34
19 -53 8 -19 13 -38 11 -42 -3 -5 2 -8 10 -8 15 0 6 30 -40 138 -8 18 -14 39
-14 47 0 16 -14 27 -23 18z"/>
<path d="M5788 3283 c6 -2 12 -14 13 -26 0 -12 3 -16 6 -10 4 12 24 -8 105
-105 44 -52 58 -36 56 62 l-2 81 -3 -77 c-2 -43 -8 -78 -13 -78 -5 0 -39 36
-76 80 -37 44 -74 80 -83 79 -10 0 -12 -2 -3 -6z"/>
<path d="M6168 3283 c7 -3 16 -2 19 1 4 3 -2 6 -13 5 -11 0 -14 -3 -6 -6z"/>
<path d="M6311 3198 c5 -70 10 -92 25 -103 11 -8 23 -15 29 -15 5 0 -1 7 -13
16 -20 14 -22 24 -22 103 0 64 -3 88 -13 88 -9 0 -11 -21 -6 -89z"/>
<path d="M6468 3202 c2 -46 5 -82 8 -79 2 2 7 37 9 77 3 40 8 77 11 81 2 4 -4
7 -13 6 -16 -1 -18 -10 -15 -85z"/>
<path d="M6565 3215 c0 -41 3 -75 7 -75 9 0 12 25 10 88 -2 36 2 44 21 52 20
8 20 9 -8 9 l-30 1 0 -75z"/>
<path d="M6638 3283 c7 -3 16 -2 19 1 4 3 -2 6 -13 5 -11 0 -14 -3 -6 -6z"/>
<path d="M6676 3277 c3 -10 9 -15 12 -12 3 3 0 11 -7 18 -10 9 -11 8 -5 -6z"/>
<path d="M6721 3268 c1 -18 2 -19 6 -5 4 14 13 17 41 15 34 -3 37 -5 34 -30
-2 -20 2 -28 13 -28 10 0 15 10 15 30 0 27 3 30 34 30 19 0 36 -6 39 -12 2 -8
3 -7 3 2 -1 12 -20 16 -94 18 -90 3 -92 2 -91 -20z"/>
<path d="M6957 3276 c-8 -8 -14 -27 -13 -43 1 -23 9 -32 46 -51 25 -12 47 -27
48 -32 2 -6 8 -7 14 -4 12 8 1 -34 -16 -56 -6 -8 0 -6 12 4 36 31 26 64 -31
93 -55 29 -72 67 -42 90 11 7 14 13 8 13 -7 0 -18 -6 -26 -14z m7 -62 c3 -8 2
-12 -4 -9 -6 3 -10 10 -10 16 0 14 7 11 14 -7z"/>
<path d="M7046 3275 c4 -8 8 -15 10 -15 2 0 4 7 4 15 0 8 -4 15 -10 15 -5 0
-7 -7 -4 -15z"/>
<path d="M7417 3283 c-11 -11 -8 -203 3 -203 6 0 10 42 10 105 0 105 -1 111
-13 98z"/>
<path d="M7725 3280 c3 -5 8 -10 11 -10 2 0 4 5 4 10 0 6 -5 10 -11 10 -5 0
-7 -4 -4 -10z"/>
<path d="M7815 3280 c-3 -6 1 -7 9 -4 18 7 21 14 7 14 -6 0 -13 -4 -16 -10z"/>
<path d="M7896 3283 c5 -5 12 -12 16 -18 4 -6 8 -2 8 8 0 9 -7 17 -17 17 -9 0
-12 -3 -7 -7z"/>
<path d="M8102 3283 c9 -2 19 -12 21 -21 3 -12 5 -10 6 6 1 17 -4 22 -21 21
-16 -1 -18 -3 -6 -6z"/>
<path d="M8227 3283 c-4 -3 -3 -11 2 -17 16 -22 41 -96 31 -96 -6 0 -1 -9 10
-20 11 -11 20 -30 20 -43 0 -16 6 -23 20 -23 16 0 17 3 6 16 -7 8 -28 54 -46
103 -18 48 -34 87 -35 87 -1 0 -5 -3 -8 -7z"/>
<path d="M8368 3276 c3 -6 7 -43 7 -83 1 -55 6 -78 20 -93 10 -11 23 -20 28
-20 6 0 2 6 -9 14 -16 12 -19 27 -19 103 0 76 -2 89 -17 89 -9 0 -14 -5 -10
-10z"/>
<path d="M8528 3265 c2 -14 6 -25 8 -25 2 0 4 11 4 25 0 14 -4 25 -9 25 -4 0
-6 -11 -3 -25z"/>
<path d="M8637 3283 c-17 -4 -18 -15 -15 -104 2 -65 7 -99 14 -99 7 0 11 31
10 98 l-1 97 31 3 c42 4 72 -28 56 -63 -9 -19 -9 -23 2 -19 20 8 27 43 13 65
-16 26 -60 35 -110 22z"/>
<path d="M8898 3285 c-3 -3 3 -23 14 -44 10 -22 20 -48 21 -60 1 -12 7 -21 14
-21 9 0 7 14 -8 52 -26 66 -34 80 -41 73z"/>
<path d="M9058 3263 c3 -16 7 -22 10 -15 2 8 12 2 26 -17 13 -17 26 -28 29
-24 4 3 7 1 7 -5 0 -16 65 -82 82 -82 10 0 11 -2 0 -9 -10 -6 -10 -10 3 -21
13 -11 15 -2 15 88 0 56 -3 103 -7 105 -5 3 -7 -30 -5 -74 2 -46 0 -79 -6 -79
-8 0 -32 26 -133 141 -22 26 -27 24 -21 -8z"/>
<path d="M9273 3275 c-3 -9 -3 -19 1 -22 3 -4 6 1 6 11 0 14 7 17 38 14 l37
-3 0 -96 c0 -70 3 -96 13 -96 9 0 12 27 12 99 l0 98 34 0 c24 0 36 -5 39 -17
4 -14 5 -12 6 5 1 21 -2 22 -89 22 -72 0 -92 -3 -97 -15z"/>
<path d="M5382 3185 c2 -57 -1 -97 -7 -99 -5 -3 -1 -5 10 -5 18 -1 20 5 18 56
-1 32 -2 77 -2 101 -1 23 -6 42 -12 42 -7 0 -9 -32 -7 -95z"/>
<path d="M5478 3250 c4 -30 22 -36 30 -10 3 7 0 10 -6 6 -5 -3 -9 2 -8 11 0 9
-4 18 -10 20 -7 2 -9 -8 -6 -27z"/>
<path d="M6214 3253 c20 -40 20 -99 1 -138 l-15 -30 25 28 c35 39 35 105 -1
144 l-25 28 15 -32z"/>
<path d="M7512 3258 c15 -23 15 -28 2 -47 -9 -12 -11 -21 -4 -21 6 0 16 12 22
26 13 28 3 54 -22 62 -11 4 -11 -1 2 -20z"/>
<path d="M7618 3180 l-3 -100 50 1 50 2 -40 6 c-39 6 -40 7 -40 49 0 23 2 42
5 42 3 0 3 22 2 50 -6 85 -21 55 -24 -50z"/>
<path d="M8028 3273 c7 -3 16 -2 19 1 4 3 -2 6 -13 5 -11 0 -14 -3 -6 -6z"/>
<path d="M6041 3242 c-19 -35 -10 -104 18 -134 13 -16 29 -28 34 -28 5 0 -1 8
-13 18 -26 21 -41 96 -28 132 11 29 3 38 -11 12z"/>
<path d="M7790 3243 c1 -28 23 -50 68 -68 41 -17 47 -27 44 -70 -2 -20 -2 -20
13 -1 17 22 20 50 5 41 -5 -3 -7 0 -4 8 4 12 -34 39 -58 41 -15 2 -48 36 -48
51 0 8 -4 15 -10 15 -5 0 -10 -8 -10 -17z"/>
<path d="M8025 3170 c0 -84 1 -90 20 -89 11 0 16 2 10 5 -6 2 -9 39 -7 89 3
65 0 85 -10 85 -10 0 -13 -22 -13 -90z"/>
<path d="M8182 3191 c-6 -17 -7 -31 -3 -31 8 0 22 52 16 58 -1 2 -7 -11 -13
-27z"/>
<path d="M9062 3200 c0 -14 2 -19 5 -12 2 6 2 18 0 25 -3 6 -5 1 -5 -13z"/>
<path d="M5456 3195 c-11 -9 -14 -15 -7 -15 7 0 19 7 27 15 20 19 5 19 -20 0z"/>
<path d="M6804 3163 c2 -26 1 -54 -4 -63 -6 -11 -4 -16 8 -17 14 -1 18 10 20
63 3 53 1 64 -13 64 -12 0 -15 -9 -11 -47z"/>
<path d="M8532 3173 c-1 -23 -5 -50 -8 -60 -5 -17 -5 -17 6 0 6 9 9 36 7 60
l-4 42 -1 -42z"/>
<path d="M5582 3165 c-17 -37 -14 -45 4 -12 9 16 14 31 11 33 -2 2 -9 -7 -15
-21z"/>
<path d="M8837 3148 c-22 -54 -16 -60 8 -8 10 22 16 42 13 45 -3 3 -12 -14
-21 -37z"/>
<path d="M5489 3162 c11 -22 4 -62 -12 -62 -6 0 -7 -3 -4 -7 10 -9 47 27 47
47 0 17 -18 40 -32 40 -5 0 -4 -8 1 -18z"/>
<path d="M7490 3146 c21 -34 60 -75 60 -62 0 12 -63 96 -71 96 -5 0 1 -15 11
-34z"/>
<path d="M8702 3148 c26 -38 57 -68 69 -68 4 0 -2 11 -14 24 -12 13 -30 35
-40 50 -10 14 -22 26 -28 26 -5 0 1 -15 13 -32z"/>
<path d="M5618 3163 c6 -2 18 -2 25 0 6 3 1 5 -13 5 -14 0 -19 -2 -12 -5z"/>
<path d="M8878 3163 c6 -2 18 -2 25 0 6 3 1 5 -13 5 -14 0 -19 -2 -12 -5z"/>
<path d="M9055 3161 c-3 -5 -1 -12 5 -16 5 -3 10 1 10 9 0 18 -6 21 -15 7z"/>
<path d="M8950 3137 c0 -16 28 -57 39 -57 10 0 -21 69 -31 70 -5 0 -8 -6 -8
-13z"/>
<path d="M5556 3105 c-9 -26 -7 -32 5 -12 6 10 9 21 6 23 -2 3 -7 -2 -11 -11z"/>
<path d="M6567 3106 c-6 -14 0 -26 13 -26 3 0 6 9 6 20 0 23 -11 27 -19 6z"/>
<path d="M8142 3100 c-7 -11 -8 -20 -3 -20 9 0 24 30 18 36 -1 2 -8 -6 -15
-16z"/>
<path d="M9050 3110 c0 -5 5 -10 11 -10 5 0 7 5 4 10 -3 6 -8 10 -11 10 -2 0
-4 -4 -4 -10z"/>
<path d="M5950 3100 c0 -5 5 -10 10 -10 6 0 10 5 10 10 0 6 -4 10 -10 10 -5 0
-10 -4 -10 -10z"/>
<path d="M6940 3095 c0 -8 4 -15 10 -15 5 0 7 7 4 15 -4 8 -8 15 -10 15 -2 0
-4 -7 -4 -15z"/>
<path d="M7741 3094 c0 -11 3 -14 6 -6 3 7 2 16 -1 19 -3 4 -6 -2 -5 -13z"/>
<path d="M7790 3090 c0 -5 5 -10 11 -10 5 0 7 5 4 10 -3 6 -8 10 -11 10 -2 0
-4 -4 -4 -10z"/>
<path d="M6638 3083 c7 -3 16 -2 19 1 4 3 -2 6 -13 5 -11 0 -14 -3 -6 -6z"/>
<path d="M6142 3060 c14 -21 45 -36 55 -26 4 3 -1 6 -10 6 -9 0 -21 9 -27 20
-6 11 -15 20 -20 20 -6 0 -5 -9 2 -20z"/>
</g>
</svg>
